<?xml version="1.0" encoding="utf-8"?>
<!-- Generator: Adobe Illustrator 20.0.0, SVG Export Plug-In . SVG Version: 6.00 Build 0)  -->
<svg version="1.1" id="Layer_1" xmlns="http://www.w3.org/2000/svg" xmlns:xlink="http://www.w3.org/1999/xlink" x="0px" y="0px"
	 viewBox="0 0 351 171" style="enable-background:new 0 0 351 171;" xml:space="preserve">
<style type="text/css">
	.st0{fill:#1268B3;}
	.st1{fill-rule:evenodd;clip-rule:evenodd;fill:#88B2DF;}
	.st2{fill-rule:evenodd;clip-rule:evenodd;fill:#1268B3;}
</style>
<g>
	<g>
		<g>
			<path class="st0" d="M10,146H0.4v-4.4h25.3v4.4h-9.6v24.3H10V146z"/>
		</g>
		<g>
			<path class="st0" d="M74.3,157.5H61.6v8.4h14.1v4.3H55.5v-28.7H75v4.3H61.6v7.4h12.6V157.5z"/>
		</g>
		<g>
			<path class="st0" d="M107,141.6h6.1v24.3h13.8v4.4H107V141.6z"/>
		</g>
		<g>
			<path class="st0" d="M176.1,157.5h-12.6v8.4h14.1v4.3h-20.2v-28.7h19.5v4.3h-13.4v7.4h12.6V157.5z"/>
		</g>
		<g>
			<path class="st0" d="M232.8,169.4c-1.4,0.6-4.6,1.3-8.7,1.3c-10.6,0-17.1-5.7-17.1-14.4c0-9.4,7.7-15.1,17.9-15.1
				c4,0,6.9,0.7,8.2,1.3l-1.3,4.2c-1.6-0.6-3.8-1.1-6.6-1.1c-6.8,0-11.7,3.7-11.7,10.6c0,6.3,4.3,10.3,11.7,10.3
				c2.5,0,5.1-0.4,6.7-1.1L232.8,169.4z"/>
		</g>
		<g>
			<path class="st0" d="M292.3,155.6c0,9.6-6.8,15.1-16.1,15.1c-9.5,0-15.4-6.2-15.4-14.6c0-8.8,6.5-15,15.9-15
				C286.6,141.1,292.3,147.4,292.3,155.6z M267.3,156c0,5.8,3.4,10.5,9.3,10.5c5.9,0,9.3-4.7,9.3-10.7c0-5.4-3.1-10.5-9.3-10.5
				C270.6,145.3,267.3,150.1,267.3,156z"/>
		</g>
		<g>
			<path class="st0" d="M343.3,158.5c-0.2-3.7-0.5-8.2-0.4-12h-0.2c-1.1,3.5-2.5,7.4-4,11l-4.9,12.4h-4.7l-4.5-12.2
				c-1.3-3.7-2.5-7.6-3.4-11.1h-0.1c-0.2,3.7-0.3,8.3-0.6,12.2l-0.7,11.5h-5.7l2.2-28.7h8.1l4.4,11.5c1.2,3.4,2.2,6.8,3.1,10h0.2
				c0.9-3.1,2-6.6,3.3-10l4.6-11.5h8l1.9,28.7h-6L343.3,158.5z"/>
		</g>
	</g>
	<g>
		<g>
			<path class="st0" d="M61.2,67.2l-11.5,2.1c0.5-2.3,0.8-4.2,0.8-5.8c0-9.9-6-14.9-18.1-14.9c-9.5,0-14.2,3.4-14.2,10.2
				c0,5.1,5.3,9.5,15.9,13.2c20.5,7,30.7,17.4,30.7,31.2c0,8.1-2.9,14.6-8.6,19.5c-5.8,4.9-13.4,7.3-22.9,7.3
				c-21.1,0-31.7-8.2-31.7-24.5c0-1.3,0.1-3,0.3-4.9l11.9-2.6c-0.9,3.6-1.4,6.8-1.4,9.4c0,10.6,6.1,15.9,18.2,15.9
				c9.7,0,14.5-3.8,14.5-11.4c0-5.7-5.8-10.6-17.4-14.9C11,90.9,2.6,81,2.6,67.5c0-7.7,2.8-13.8,8.4-18.5c5.6-4.7,13-7,22.1-7
				C51.8,41.9,61.2,50.4,61.2,67.2z"/>
		</g>
		<g>
			<path class="st0" d="M141.9,43.4v8.5H121v76.7H94.7V51.9h-21v-8.5H141.9z"/>
		</g>
		<g>
			<path class="st0" d="M279.4,128.6V43.4h36.7c9.5,0,17.2,2,22.9,6c5.7,4,8.6,9.4,8.6,16.2c0,10.3-6.1,17-18.4,20.2
				c6.3,2.3,10.4,4.9,12.2,7.7c1.9,2.8,3.1,8.2,3.8,16.2c0.8,9.6,2.4,15.9,4.8,19h-26.9c-1.7-3.9-2.6-8.9-2.6-14.8l-0.1-5.1
				l-0.1-6.4c0-9.8-3.9-14.7-11.9-14.7h-4.2v41H279.4z M304.1,80.6h5c9.4,0,14.1-4.9,14.1-14.7c0-9.8-4.7-14.7-14.1-14.7h-5V80.6z"
				/>
		</g>
		<g>
			<g>
				<polygon class="st1" points="147.7,56.7 177,81.5 162.4,128.1 173.1,128.1 187.4,77.2 164.8,56.7 				"/>
			</g>
			<g>
				<polygon class="st1" points="183.8,56.7 194,56.7 204.5,28.4 213.7,56.7 237.8,56.7 220.3,0.2 204.1,0.2 				"/>
			</g>
			<g>
				<polygon class="st2" points="185.7,100 208,87.2 233.1,105.9 223.9,77.2 242.3,56.7 262.4,56.7 244.8,76.7 262,128.1 242,128.1 
					208.1,101.8 180.2,118.9 				"/>
			</g>
		</g>
	</g>
</g>
</svg>
